<?xml version="1.0" encoding="UTF-8" standalone="no"?>
<!-- Created with Inkscape (http://www.inkscape.org/) -->

<svg
   xmlns:dc="http://purl.org/dc/elements/1.1/"
   xmlns:cc="http://creativecommons.org/ns#"
   xmlns:rdf="http://www.w3.org/1999/02/22-rdf-syntax-ns#"
   xmlns:svg="http://www.w3.org/2000/svg"
   xmlns="http://www.w3.org/2000/svg"
   xmlns:sodipodi="http://sodipodi.sourceforge.net/DTD/sodipodi-0.dtd"
   xmlns:inkscape="http://www.inkscape.org/namespaces/inkscape"
   width="700"
   height="700"
   viewBox="0 0 700.00001 700.00001"
   id="svg2"
   version="1.1"
   inkscape:version="0.91 r13725"
   sodipodi:docname="flowerInc.svg">
  <defs
     id="defs4">
    <inkscape:path-effect
       effect="powerstroke"
       id="path-effect4853"
       is_visible="true"
       offset_points="0,1.625 | 0.5,1 | 1,0.46428571"
       sort_points="true"
       interpolator_type="Linear"
       interpolator_beta="0.2"
       start_linecap_type="round"
       linejoin_type="round"
       miter_limit="4"
       end_linecap_type="round" />
    <inkscape:path-effect
       effect="ruler"
       id="path-effect4822"
       is_visible="true"
       unit="px"
       mark_distance="5"
       mark_length="13"
       minor_mark_length="6"
       major_mark_steps="5"
       shift="3"
       offset="11"
       mark_dir="both"
       border_marks="none" />
    <inkscape:path-effect
       effect="skeletal"
       id="path-effect4813"
       is_visible="true"
       pattern="m 0,357.36216 c 0,-2.76 2.24,-5 5,-5 2.76,0 5,2.24 5,5 0,2.76 -2.24,5 -5,5 -2.76,0 -5,-2.24 -5,-5 z"
       copytype="single_stretched"
       prop_scale="1"
       scale_y_rel="false"
       spacing="0"
       normal_offset="0"
       tang_offset="0"
       prop_units="false"
       vertical_pattern="false"
       fuse_tolerance="0" />
    <inkscape:path-effect
       effect="powerstroke"
       id="path-effect4732"
       is_visible="true"
       offset_points="0,1 | 3.5067854,4.74269"
       sort_points="true"
       interpolator_type="CubicBezierFit"
       interpolator_beta="0.2"
       start_linecap_type="round"
       linejoin_type="round"
       miter_limit="4"
       end_linecap_type="round" />
    <inkscape:path-effect
       effect="ruler"
       id="path-effect4730"
       is_visible="true"
       unit="px"
       mark_distance="20"
       mark_length="14"
       minor_mark_length="7"
       major_mark_steps="5"
       shift="0"
       offset="0"
       mark_dir="left"
       border_marks="both" />
    <inkscape:path-effect
       effect="knot"
       id="path-effect4728"
       is_visible="true"
       interruption_width="3"
       prop_to_stroke_width="true"
       add_stroke_width="true"
       add_other_stroke_width="true"
       switcher_size="15"
       crossing_points_vector="" />
    <inkscape:path-effect
       effect="rough_hatches"
       id="path-effect4726"
       is_visible="true"
       direction="133.29101,815.9668 , 65.861328,0"
       dist_rdm="75;1"
       growth="0"
       do_bend="true"
       bender="133.29101,820.9668 , 5,0"
       bottom_edge_variation="45.917579;1"
       top_edge_variation="45.917579;1"
       bottom_tgt_variation="0;1"
       top_tgt_variation="0;1"
       scale_bf="1"
       scale_bb="1"
       scale_tf="1"
       scale_tb="1"
       top_smth_variation="0;1"
       bottom_smth_variation="0;1"
       fat_output="true"
       stroke_width_top="1"
       stroke_width_bottom="1"
       front_thickness="1"
       back_thickness="0.25" />
    <inkscape:path-effect
       effect="construct_grid"
       id="path-effect4724"
       is_visible="true"
       nr_x="5"
       nr_y="5" />
    <inkscape:path-effect
       effect="bend_path"
       id="path-effect4722"
       is_visible="true"
       bendpath="m 1.5683594,820.9668 263.4453106,0"
       prop_scale="1"
       scale_y_rel="false"
       vertical="false" />
    <inkscape:path-effect
       effect="vonkoch"
       id="path-effect4720"
       is_visible="true"
       ref_path="m 1.5683594,820.9668 263.4453106,0"
       generator="m 1.5683594,1050.5547 87.8151036,0 m 87.815107,0 87.8151,0"
       similar_only="false"
       nbgenerations="1"
       drawall="true"
       maxComplexity="1000" />
    <inkscape:path-effect
       effect="curvestitching"
       id="path-effect4718"
       is_visible="true"
       count="5"
       startpoint_edge_variation="0;1"
       startpoint_spacing_variation="0;1"
       endpoint_edge_variation="0;1"
       endpoint_spacing_variation="0;1"
       strokepath="m 1.5683594,820.9668 263.4453106,0"
       prop_scale="1"
       scale_y_rel="false" />
    <inkscape:path-effect
       effect="spiro"
       id="path-effect4716"
       is_visible="true" />
    <inkscape:path-effect
       effect="sketch"
       id="path-effect4714"
       is_visible="true"
       nbiter_approxstrokes="1"
       strokelength="100"
       strokelength_rdm="0.3;1"
       strokeoverlap="0.3"
       strokeoverlap_rdm="0.3;1"
       ends_tolerance="0.1;1"
       parallel_offset="5;1"
       tremble_size="5;1"
       tremble_frequency="1"
       nbtangents="5"
       tgt_places_rdmness="1;1"
       tgtscale="10"
       tgtlength="100"
       tgtlength_rdm="0.3;1" />
    <inkscape:path-effect
       effect="powerstroke"
       id="path-effect4712"
       is_visible="true"
       offset_points="0,1 | 3.4874877,13.101339"
       sort_points="true"
       interpolator_type="SpiroInterpolator"
       interpolator_beta="0.2"
       start_linecap_type="round"
       linejoin_type="round"
       miter_limit="4"
       end_linecap_type="round" />
    <inkscape:path-effect
       effect="skeletal"
       id="path-effect4710"
       is_visible="true"
       pattern="M 0,0 1,0"
       copytype="single_stretched"
       prop_scale="1"
       scale_y_rel="false"
       spacing="0"
       normal_offset="0"
       tang_offset="0"
       prop_units="false"
       vertical_pattern="false"
       fuse_tolerance="0" />
    <inkscape:path-effect
       effect="ruler"
       id="path-effect4822-8"
       is_visible="true"
       unit="px"
       mark_distance="5"
       mark_length="13"
       minor_mark_length="6"
       major_mark_steps="5"
       shift="3"
       offset="11"
       mark_dir="both"
       border_marks="none" />
    <inkscape:path-effect
       effect="powerstroke"
       id="path-effect4853-5"
       is_visible="true"
       offset_points="0,1.8218062 | 0.5,1.1211115 | 1,0.52051605"
       sort_points="true"
       interpolator_type="Linear"
       interpolator_beta="0.2"
       start_linecap_type="round"
       linejoin_type="round"
       miter_limit="4"
       end_linecap_type="round" />
    <inkscape:path-effect
       effect="powerstroke"
       id="path-effect4853-5-8"
       is_visible="true"
       offset_points="0,1.625 | 0.5,1 | 1,0.46428571"
       sort_points="true"
       interpolator_type="Linear"
       interpolator_beta="0.2"
       start_linecap_type="round"
       linejoin_type="round"
       miter_limit="4"
       end_linecap_type="round" />
    <inkscape:path-effect
       effect="powerstroke"
       id="path-effect4853-5-1"
       is_visible="true"
       offset_points="0,1.0219388 | 0.5,0.62888542 | 1,0.29198251"
       sort_points="true"
       interpolator_type="Linear"
       interpolator_beta="0.2"
       start_linecap_type="round"
       linejoin_type="round"
       miter_limit="4"
       end_linecap_type="round" />
    <inkscape:path-effect
       effect="powerstroke"
       id="path-effect4853-5-9"
       is_visible="true"
       offset_points="0,0.76283969 | 0.5,0.46943981 | 1,0.21795419"
       sort_points="true"
       interpolator_type="Linear"
       interpolator_beta="0.2"
       start_linecap_type="round"
       linejoin_type="round"
       miter_limit="4"
       end_linecap_type="round" />
    <inkscape:path-effect
       effect="powerstroke"
       id="path-effect4853-5-9-6"
       is_visible="true"
       offset_points="0,0.76283969 | 0.5,0.46943981 | 1,0.21795419"
       sort_points="true"
       interpolator_type="Linear"
       interpolator_beta="0.2"
       start_linecap_type="round"
       linejoin_type="round"
       miter_limit="4"
       end_linecap_type="round" />
    <inkscape:path-effect
       effect="powerstroke"
       id="path-effect4853-5-9-2"
       is_visible="true"
       offset_points="0,0.48660112 | 0.5,0.29944685 | 1,0.13902889"
       sort_points="true"
       interpolator_type="Linear"
       interpolator_beta="0.2"
       start_linecap_type="round"
       linejoin_type="round"
       miter_limit="4"
       end_linecap_type="round" />
    <inkscape:path-effect
       effect="powerstroke"
       id="path-effect4853-5-9-2-4"
       is_visible="true"
       offset_points="0,0.39145761 | 0.5,0.24089699 | 1,0.11184503"
       sort_points="true"
       interpolator_type="Linear"
       interpolator_beta="0.2"
       start_linecap_type="round"
       linejoin_type="round"
       miter_limit="4"
       end_linecap_type="round" />
    <inkscape:path-effect
       effect="powerstroke"
       id="path-effect4853-5-9-2-9"
       is_visible="true"
       offset_points="0,0.48660112 | 0.5,0.29944685 | 1,0.13902889"
       sort_points="true"
       interpolator_type="Linear"
       interpolator_beta="0.2"
       start_linecap_type="round"
       linejoin_type="round"
       miter_limit="4"
       end_linecap_type="round" />
    <inkscape:path-effect
       effect="powerstroke"
       id="path-effect4853-5-9-2-5"
       is_visible="true"
       offset_points="0,1.2482085 | 0.5,0.76812829 | 1,0.35663099"
       sort_points="true"
       interpolator_type="Linear"
       interpolator_beta="0.2"
       start_linecap_type="round"
       linejoin_type="round"
       miter_limit="4"
       end_linecap_type="round" />
  </defs>
  <sodipodi:namedview
     id="base"
     pagecolor="#ffffff"
     bordercolor="#666666"
     borderopacity="1.0"
     inkscape:pageopacity="0.0"
     inkscape:pageshadow="2"
     inkscape:zoom="0.98994949"
     inkscape:cx="168.24094"
     inkscape:cy="341.9326"
     inkscape:document-units="px"
     inkscape:current-layer="layer1"
     showgrid="false"
     units="px"
     inkscape:window-width="2560"
     inkscape:window-height="1017"
     inkscape:window-x="-8"
     inkscape:window-y="-8"
     inkscape:window-maximized="1" />
  <metadata
     id="metadata7">
    <rdf:RDF>
      <cc:Work
         rdf:about="">
        <dc:format>image/svg+xml</dc:format>
        <dc:type
           rdf:resource="http://purl.org/dc/dcmitype/StillImage" />
        <dc:title></dc:title>
      </cc:Work>
    </rdf:RDF>
  </metadata>
  <g
     inkscape:label="Layer 1"
     inkscape:groupmode="layer"
     id="layer1"
     transform="translate(0,-352.36216)">
    <path
       style="color:#000000;font-style:normal;font-variant:normal;font-weight:normal;font-stretch:normal;font-size:medium;line-height:normal;font-family:sans-serif;text-indent:0;text-align:start;text-decoration:none;text-decoration-line:none;text-decoration-style:solid;text-decoration-color:#000000;letter-spacing:normal;word-spacing:normal;text-transform:none;direction:ltr;block-progression:tb;writing-mode:lr-tb;baseline-shift:baseline;text-anchor:start;white-space:normal;clip-rule:nonzero;display:inline;overflow:visible;visibility:visible;opacity:1;isolation:auto;mix-blend-mode:normal;color-interpolation:sRGB;color-interpolation-filters:linearRGB;solid-color:#000000;solid-opacity:1;fill:#00810b;fill-opacity:1;fill-rule:nonzero;stroke:#00810b;stroke-width:1;stroke-linecap:round;stroke-linejoin:round;stroke-miterlimit:4;stroke-dasharray:none;stroke-dashoffset:0;stroke-opacity:1;color-rendering:auto;image-rendering:auto;shape-rendering:auto;text-rendering:auto;enable-background:accumulate"
       d="m 263.59953,590.6718 c -32.74919,32.24532 -45.82166,70.70354 -54.78266,110.98655 -9.00856,40.4968 -13.73751,81.73332 -29.83986,120.86604 -12.00716,29.46002 -33.62572,53.93453 -57.81914,77.05034 -23.961356,22.89409 -51.010405,44.91283 -72.419038,68.56443 -10.632699,11.6753 -20.426362,25.07942 -29.134707,38.98684 -8.477046,13.538 -15.9781994,27.571 -22.2868628,40.9957 a 4.04403,4.6657741 21.161413 0 0 2.24840739,6.2604 c 0.32488466,0.092 0.67210607,0.1368 1.03584074,0.1465 a 6.7882047,3.2911452 6.1101377 0 0 5.84301627,-2.0985 c 12.4169024,-26.641 29.4995184,-55.63371 49.3182484,-77.96914 20.945443,-23.43109 46.967165,-44.78273 71.470145,-68.5818 24.2996,-23.60152 46.64856,-49.2342 59.0029,-80.45207 15.82282,-40.2177 20.04069,-82.86799 28.14253,-122.59914 8.14085,-39.92249 20.26307,-77.69866 51.80311,-109.57422 a 1.0391043,1.5656919 33.571076 0 0 0,-2.33558 c -0.40372,-0.0676 -0.79618,-0.14653 -1.16771,-0.24635 z m 0,1.41422 c 0.0998,0.37153 0.17872,0.76399 0.24635,1.16771 l 0,-2.33558 c -32.60317,32.26655 -45.43342,70.69228 -54.16173,110.92186 -8.77023,40.42284 -13.28762,81.84113 -29.31448,121.24064 -12.05862,29.81449 -33.77936,54.51853 -58.01165,77.7339 -24.027199,23.01889 -51.003802,44.9651 -72.320033,68.49406 -20.810464,22.80916 -38.620896,52.35719 -51.5372011,79.37069 l 5.8430162,-2.0985 c -0.239128,-0.2742 -0.4947709,-0.5134 -0.7727529,-0.7051 l 2.2484074,6.2604 c 6.2170884,-13.1036 13.5670704,-26.7895 21.8240174,-39.9761 8.486571,-13.55317 17.874014,-26.55696 27.930194,-37.86948 21.009561,-23.48238 46.931902,-44.80128 71.422332,-68.65019 24.25073,-23.6155 46.53545,-49.2471 58.77309,-80.3991 15.61868,-40.15561 19.62191,-82.84099 27.5195,-122.64174 7.93883,-40.00858 19.95249,-78.23844 51.72516,-110.51347 z"
       id="path4694"
       inkscape:connector-curvature="0"
       inkscape:path-effect="#path-effect4732"
       inkscape:original-d="m 264.30664,591.37891 c -32.25981,32.25981 -44.80485,70.60399 -53.25391,110.75 -8.44905,40.14601 -12.82325,82.11281 -28.67968,121.7539 C 158.12761,884.4964 94.566261,924.0926 52.15625,971.21484 31.744516,993.89454 14.266368,1023.2357 1.5683594,1050.1289 l 0.9042968,0.4258 C 15.139255,1023.728 32.585725,994.45661 52.900391,971.88477 95.163807,924.92541 158.88957,885.28682 183.30273,824.25391 c 15.92322,-39.80804 20.29411,-81.84348 28.72852,-121.91993 8.43441,-40.07644 20.91101,-78.17663 52.98242,-110.24804 l -0.70703,-0.70703 z" />
    <path
       style="color:#000000;font-style:normal;font-variant:normal;font-weight:normal;font-stretch:normal;font-size:medium;line-height:normal;font-family:sans-serif;text-indent:0;text-align:start;text-decoration:none;text-decoration-line:none;text-decoration-style:solid;text-decoration-color:#000000;letter-spacing:normal;word-spacing:normal;text-transform:none;direction:ltr;block-progression:tb;writing-mode:lr-tb;baseline-shift:baseline;text-anchor:start;white-space:normal;clip-rule:nonzero;display:inline;overflow:visible;visibility:visible;opacity:1;isolation:auto;mix-blend-mode:normal;color-interpolation:sRGB;color-interpolation-filters:linearRGB;solid-color:#000000;solid-opacity:1;fill:#00810b;fill-opacity:1;fill-rule:nonzero;stroke:#00810b;stroke-width:1px;stroke-linecap:butt;stroke-linejoin:round;stroke-miterlimit:4;stroke-dasharray:none;stroke-dashoffset:0;stroke-opacity:1;color-rendering:auto;image-rendering:auto;shape-rendering:auto;text-rendering:auto;enable-background:accumulate"
       d="m 214.99414,460.84961 c -15.82778,0.75176 -31.01445,7.65763 -40.65234,22.01367 -5.41324,8.06324 -8.02587,19.2076 -6.61133,29.31836 1.41453,10.11076 6.92409,19.22033 17.72265,22.94922 4.14882,1.43264 10.99605,0.50478 15.86329,-2.18359 2.43362,-1.34419 4.38599,-3.15245 5.14648,-5.42774 0.76049,-2.27529 -0.23951,-4.46639 -2.51255,-7.32729 l -0.29018,0.13003 c 2.13328,2.68499 2.50171,4.94543 1.85546,6.8789 -0.64624,1.93348 -2.38381,3.59996 -4.68164,4.86914 -4.59565,2.53838 -11.37188,3.38696 -15.05468,2.11524 -10.42467,-3.59978 -15.68163,-12.30032 -17.0586,-22.14258 -1.37697,-9.84226 1.19347,-20.79148 6.45118,-28.62305 9.44992,-14.07605 24.3003,-20.8328 39.86914,-21.57226 15.56884,-0.73946 31.83692,4.56425 43.99804,14.60742 35.74981,29.52368 34.33515,81.66697 4.46009,114.28237 l 2.94616,2.23632 c 30.23222,-33.00531 29.46715,-87.36246 -6.76953,-117.28822 -12.36511,-10.21163 -28.85385,-15.5877 -44.68164,-14.83594 z"
       id="path4700"
       inkscape:connector-curvature="0"
       sodipodi:nodetypes="ssssssccsssssssccss" />
    <path
       style="color:#000000;font-style:normal;font-variant:normal;font-weight:normal;font-stretch:normal;font-size:medium;line-height:normal;font-family:sans-serif;text-indent:0;text-align:start;text-decoration:none;text-decoration-line:none;text-decoration-style:solid;text-decoration-color:#000000;letter-spacing:normal;word-spacing:normal;text-transform:none;direction:ltr;block-progression:tb;writing-mode:lr-tb;baseline-shift:baseline;text-anchor:start;white-space:normal;clip-rule:nonzero;display:inline;overflow:visible;visibility:visible;opacity:1;isolation:auto;mix-blend-mode:normal;color-interpolation:sRGB;color-interpolation-filters:linearRGB;solid-color:#000000;solid-opacity:1;fill:#00810b;fill-opacity:1;fill-rule:evenodd;stroke:#00810b;stroke-width:1px;stroke-linecap:butt;stroke-linejoin:round;stroke-miterlimit:4;stroke-dasharray:none;stroke-dashoffset:0;stroke-opacity:1;color-rendering:auto;image-rendering:auto;shape-rendering:auto;text-rendering:auto;enable-background:accumulate"
       d="m 295.63672,605.00781 c 4.25407,0.13319 8.47717,0.65148 12.58789,1.56446 16.44288,3.65188 31.09923,13.63407 38.5957,30.41406 4.20932,9.42208 4.92765,21.56699 1.61719,31.89844 -3.31046,10.33144 -10.72379,18.8698 -22.70312,20.82031 -4.59179,0.74764 -11.59687,-1.46184 -16.20313,-5.1543 -2.30313,-1.84623 -4.01712,-4.09074 -4.40039,-6.60156 -0.38327,-2.51082 0.8467,-4.98861 3.74147,-7.57043 l 0.0462,0.0286 c -2.7271,2.43228 -3.12827,5.23691 -2.79938,7.39146 0.32889,2.15454 1.85502,4.2215 4.03711,5.9707 4.36418,3.49841 11.31279,5.61764 15.41797,4.94922 11.58891,-1.88694 18.68242,-10.06541 21.91016,-20.13867 3.22773,-10.07326 2.51738,-22.02018 -1.57813,-31.1875 -7.35892,-16.47209 -21.70863,-26.24807 -37.89844,-29.84375 -16.1898,-3.59568 -34.20515,-0.98144 -48.77539,7.3457 -15.64208,8.93972 -26.38931,25.87372 -32.81802,42.65239 l -2.95585,-4.52626 c 6.50745,-16.98421 19.41913,-29.92983 35.27778,-38.99332 11.09995,-6.34381 24.13817,-9.4191 36.90039,-9.01953 z"
       id="path4702"
       inkscape:connector-curvature="0"
       sodipodi:nodetypes="cssssssccsssssssccssc" />
    <path
       sodipodi:type="star"
       style="fill:#ffd870;fill-opacity:1;fill-rule:nonzero;stroke:#fff5a2;stroke-width:9.28499985;stroke-linecap:butt;stroke-linejoin:round;stroke-miterlimit:4;stroke-dasharray:none;stroke-dashoffset:90;stroke-opacity:1"
       id="path4734"
       sodipodi:sides="5"
       sodipodi:cx="250.89592"
       sodipodi:cy="376.72025"
       sodipodi:r1="22.132904"
       sodipodi:r2="31.173105"
       sodipodi:arg1="0.57762953"
       sodipodi:arg2="1.2059481"
       inkscape:flatsided="false"
       inkscape:rounded="0.4"
       inkscape:randomized="0.02"
       d="m 269.27319,388.49162 c -4.16256,6.22657 0.006,15.13857 -6.89807,17.95198 -6.90453,2.8134 -10.63845,-6.08423 -17.84107,-7.83708 -7.20262,-1.75286 -12.83054,3.49797 -17.62622,-2.26328 -4.79568,-5.76124 2.45307,-11.12317 2.22155,-18.52539 -0.23152,-7.40222 -8.58638,-11.75633 -4.57243,-17.97016 4.01395,-6.21383 11.7231,-1.38396 18.62125,-4.0216 6.89815,-2.63764 8.15926,-11.77026 15.35891,-9.80377 7.19965,1.96649 5.56118,11.47745 10.1034,17.40831 4.54223,5.93087 12.46744,4.50883 12.92317,11.85996 0.45573,7.35114 -8.12793,6.97445 -12.29049,13.20103 z"
       inkscape:transform-center-x="1.431219"
       inkscape:transform-center-y="1.854952"
       transform="matrix(0.73337717,-0.39234919,0.39234919,0.73337717,-21.96309,492.08619)" />
    <ellipse
       style="fill:#a16c3f;fill-opacity:1;fill-rule:nonzero;stroke:#bd901f;stroke-width:2.24567938;stroke-linecap:butt;stroke-linejoin:round;stroke-miterlimit:4;stroke-dasharray:none;stroke-dashoffset:90;stroke-opacity:1"
       id="path4738"
       transform="matrix(0.8817458,-0.47172486,0.47172486,0.8817458,0,0)"
       ry="8.080225"
       rx="9.5769472"
       cy="736.2832"
       cx="-42.816711" />
    <path
       style="fill:#2da537;fill-opacity:1;fill-rule:evenodd;stroke:none;stroke-width:1px;stroke-linecap:butt;stroke-linejoin:miter;stroke-opacity:1"
       d="m 208.08852,750.80939 c 0,0 5.67345,-28.05845 26.64143,-47.73756 20.968,-19.67911 41.94919,-16.63686 41.94919,-16.63686 0,0 1.70689,21.13179 -19.26111,40.81091 -20.96798,19.67909 -49.32951,23.56351 -49.32951,23.56351 z"
       id="path4811-5-8"
       inkscape:connector-curvature="0"
       sodipodi:nodetypes="cscsc" />
    <path
       style="fill:none;fill-rule:evenodd;stroke:#00810b;stroke-width:1.12111151px;stroke-linecap:round;stroke-linejoin:round;stroke-opacity:1"
       d="m 224.01254,742.90359 -6.45442,-0.98169 -0.81302,-6.76172 m 11.35478,3.9073 -6.45442,-0.98169 -0.81302,-6.76173 m 11.35479,3.9073 -6.45443,-0.98169 -0.81302,-6.76172 m 15.44628,5.06044 -10.54591,-2.13483 -1.54025,-11.36348 m 12.08205,8.50907 -6.45444,-0.98171 -0.81301,-6.76171 m 11.3548,3.9073 -6.45444,-0.98171 -0.81302,-6.76171 m 11.35479,3.90731 -6.45443,-0.98169 -0.81302,-6.76173 m 11.35481,3.9073 -6.45443,-0.98169 -0.81302,-6.76173 m 15.44626,5.06044 -10.54589,-2.13482 -1.54025,-11.36349 m 12.08205,8.50907 -6.45444,-0.9817 -0.81301,-6.76171 m 11.35479,3.9073 -6.45443,-0.98171 -0.81302,-6.76171 m 11.35479,3.9073 -6.45443,-0.98169 -0.81302,-6.76172 m 11.35481,3.90731 -6.45443,-0.98171 -0.81302,-6.76172"
       id="path4820-3-1"
       inkscape:connector-curvature="0"
       sodipodi:nodetypes="ccccccccccccccccccccccccccccccccccccccc" />
    <path
       style="fill:#00810b;fill-opacity:1;fill-rule:evenodd;stroke:none;stroke-width:1px;stroke-linecap:butt;stroke-linejoin:miter;stroke-opacity:1"
       d="m 203.09222,757.91467 34.79362,-33.61585 34.86212,-33.54286 a 0.52051605,0.52051605 90 0 0 -0.71242,-0.75908 l -35.68415,32.667 -35.75265,32.59401 a 1.8218062,1.8218062 90 0 0 2.49348,2.65678 z"
       id="path4851-1"
       inkscape:connector-curvature="0"
       inkscape:path-effect="#path-effect4853-5"
       inkscape:original-d="m 201.84548,756.58628 70.54627,-66.20986"
       sodipodi:nodetypes="cc" />
    <path
       style="fill:#2da537;fill-opacity:1;fill-rule:evenodd;stroke:none;stroke-width:1px;stroke-linecap:butt;stroke-linejoin:miter;stroke-opacity:1"
       d="m 205.0839,710.39163 c 0,0 -20.28002,-15.51446 -27.86424,-40.01734 -7.58423,-24.5029 3.05467,-40.13667 3.05467,-40.13667 0,0 17.61053,6.8899 25.19475,31.3928 7.58423,24.50288 -0.38518,48.76121 -0.38518,48.76121 z"
       id="path4811-5-8-6"
       inkscape:connector-curvature="0"
       sodipodi:nodetypes="cscsc" />
    <path
       style="fill:none;fill-rule:evenodd;stroke:#00810b;stroke-width:1px;stroke-linecap:round;stroke-linejoin:round;stroke-opacity:1"
       d="m 204.96828,694.5341 -3.30957,4.7915 -5.73927,-1.99068 m 7.57043,-7.57726 -3.30957,4.7915 -5.73927,-1.99068 m 7.57042,-7.57726 -3.30957,4.7915 -5.73927,-1.99069 m 10.094,-10.40715 -5.83314,7.62139 -9.71317,-3.20597 m 11.54433,-6.36196 -3.30958,4.7915 -5.73927,-1.99069 m 7.57044,-7.57727 -3.30959,4.79152 -5.73926,-1.99069 m 7.57043,-7.57726 -3.30957,4.79151 -5.73928,-1.99069 m 7.57044,-7.57727 -3.30958,4.79151 -5.73927,-1.99069 m 10.09399,-10.40715 -5.83313,7.62139 -9.71317,-3.20598 m 11.54433,-6.36196 -3.30958,4.7915 -5.73926,-1.99068 m 7.57042,-7.57726 -3.30957,4.7915 -5.73927,-1.99068 m 7.57042,-7.57726 -3.30957,4.7915 -5.73926,-1.99069 m 7.57043,-7.57726 -3.30958,4.7915 -5.73927,-1.99069"
       id="path4820-3-1-8"
       inkscape:connector-curvature="0"
       sodipodi:nodetypes="ccccccccccccccccccccccccccccccccccccccc" />
    <path
       style="fill:#00810b;fill-opacity:1;fill-rule:evenodd;stroke:none;stroke-width:1px;stroke-linecap:butt;stroke-linejoin:miter;stroke-opacity:1"
       d="M 208.82832,717.17447 195.4728,676.1396 182.20257,635.07832 a 0.46428571,0.46428571 90 0 0 -0.88706,0.27456 l 12.24671,41.37808 12.16142,41.40449 a 1.625,1.625 90 0 0 3.10468,-0.96098 z"
       id="path4851-1-2"
       inkscape:connector-curvature="0"
       inkscape:path-effect="#path-effect4853-5-8"
       inkscape:original-d="M 207.27598,717.65496 181.75904,635.2156"
       sodipodi:nodetypes="cc" />
    <path
       style="fill:#2da537;fill-opacity:1;fill-rule:evenodd;stroke:none;stroke-width:1px;stroke-linecap:butt;stroke-linejoin:miter;stroke-opacity:1"
       d="m 267.75183,593.08878 c 0,0 9.58676,-12.88213 24.93162,-17.85576 15.34488,-4.97363 25.26464,1.58601 25.26464,1.58601 0,0 -4.18565,11.13151 -19.53053,16.10513 -15.34488,4.97363 -30.66573,0.16462 -30.66573,0.16462 z"
       id="path4811-5-8-1"
       inkscape:connector-curvature="0"
       sodipodi:nodetypes="cscsc" />
    <path
       style="fill:none;fill-rule:evenodd;stroke:#00810b;stroke-width:0.62888545px;stroke-linecap:round;stroke-linejoin:round;stroke-opacity:1"
       d="m 277.72255,592.88378 -3.04065,-2.04119 1.20395,-3.62562 m 4.82797,4.69729 -3.04066,-2.04119 1.20395,-3.62562 m 4.82797,4.69729 -3.04065,-2.04117 1.20395,-3.62563 m 6.62854,6.26057 -4.84122,-3.60446 1.93497,-6.13468 m 4.09691,7.20634 -3.04066,-2.04119 1.20395,-3.62562 m 4.82798,4.6973 -3.04066,-2.04119 1.20395,-3.62562 m 4.82797,4.6973 -3.04066,-2.04119 1.20395,-3.62563 m 4.82798,4.6973 -3.04066,-2.04118 1.20395,-3.62563 m 6.62854,6.26058 -4.84122,-3.60446 1.93497,-6.13469 m 4.09691,7.20634 -3.04065,-2.04118 1.20395,-3.62562 m 4.82797,4.69729 -3.04066,-2.04118 1.20395,-3.62562 m 4.82797,4.69729 -3.04066,-2.04119 1.20395,-3.62562 m 4.82798,4.6973 -3.04066,-2.04119 1.20395,-3.62563"
       id="path4820-3-1-7"
       inkscape:connector-curvature="0"
       sodipodi:nodetypes="ccccccccccccccccccccccccccccccccccccccc" />
    <path
       style="fill:#00810b;fill-opacity:1;fill-rule:evenodd;stroke:none;stroke-width:1px;stroke-linecap:butt;stroke-linejoin:miter;stroke-opacity:1"
       d="m 263.51782,595.49998 25.69253,-8.74073 25.70984,-8.68731 a 0.29198251,0.29198251 90 0 0 -0.18006,-0.55552 l -25.9176,8.04634 -25.93491,7.99292 a 1.0219388,1.0219388 90 0 0 0.6302,1.9443 z"
       id="path4851-1-3"
       inkscape:connector-curvature="0"
       inkscape:path-effect="#path-effect4853-5-1"
       inkscape:original-d="m 263.20272,594.52783 51.62744,-16.73365"
       sodipodi:nodetypes="cc" />
    <path
       style="fill:#2da537;fill-opacity:1;fill-rule:evenodd;stroke:none;stroke-width:1px;stroke-linecap:butt;stroke-linejoin:miter;stroke-opacity:1"
       d="m 338.45736,622.09802 c 0,0 11.69365,-2.63392 22.80265,2.0111 11.10902,4.64503 13.53724,13.18375 13.53724,13.18375 0,0 -7.78348,4.26888 -18.8925,-0.37614 -11.109,-4.64503 -17.44739,-14.81871 -17.44739,-14.81871 z"
       id="path4811-5-8-3"
       inkscape:connector-curvature="0"
       sodipodi:nodetypes="cscsc" />
    <path
       style="fill:none;fill-rule:evenodd;stroke:#00810b;stroke-width:0.4694398px;stroke-linecap:round;stroke-linejoin:round;stroke-opacity:1"
       d="m 344.20392,626.83043 -0.72948,-2.63462 2.44488,-1.46791 m 0.45012,5.008 -0.72948,-2.63461 2.44489,-1.46792 m 0.45011,5.00799 -0.72946,-2.63459 2.44487,-1.46793 m 0.70968,6.76893 -0.98903,-4.39552 4.07899,-2.53342 m -1.184,6.07348 -0.72947,-2.63459 2.44487,-1.46793 m 0.45013,5.008 -0.72949,-2.6346 2.44488,-1.46792 m 0.45012,5.008 -0.72947,-2.6346 2.44488,-1.46793 m 0.45013,5.008 -0.72948,-2.63459 2.44489,-1.46793 m 0.70967,6.76893 -0.98903,-4.39553 4.07899,-2.53342 m -1.18399,6.0735 -0.72947,-2.63462 2.44488,-1.46791 m 0.45012,5.008 -0.72947,-2.63461 2.44488,-1.46792 m 0.45012,5.008 -0.72947,-2.63461 2.44488,-1.46792 m 0.45011,5.00801 -0.72947,-2.63461 2.44488,-1.46792"
       id="path4820-3-1-87"
       inkscape:connector-curvature="0"
       sodipodi:nodetypes="ccccccccccccccccccccccccccccccccccccccc" />
    <path
       style="fill:#00810b;fill-opacity:1;fill-rule:evenodd;stroke:none;stroke-width:1px;stroke-linecap:butt;stroke-linejoin:miter;stroke-opacity:1"
       d="m 334.88695,621.4047 18.80119,7.54335 18.78502,7.58201 a 0.21795419,0.21795419 90 0 0 0.16816,-0.40216 l -18.59099,-8.04606 -18.57482,-8.08472 a 0.76283969,0.76283969 90 0 0 -0.58856,1.40758 z"
       id="path4851-1-5"
       inkscape:connector-curvature="0"
       inkscape:path-effect="#path-effect4853-5-9"
       inkscape:original-d="m 335.18123,620.70091 37.37601,15.62807"
       sodipodi:nodetypes="cc" />
    <path
       style="fill:#2da537;fill-opacity:1;fill-rule:evenodd;stroke:none;stroke-width:1px;stroke-linecap:butt;stroke-linejoin:miter;stroke-opacity:1"
       d="m 271.82561,577.13248 c 0,0 -6.75094,-9.90474 -6.51827,-21.94352 0.23267,-12.03878 7.27937,-17.43786 7.27937,-17.43786 0,0 6.83284,5.66731 6.60017,17.7061 -0.23267,12.03878 -7.36127,21.67528 -7.36127,21.67528 z"
       id="path4811-5-8-3-9"
       inkscape:connector-curvature="0"
       sodipodi:nodetypes="cscsc" />
    <path
       style="fill:none;fill-rule:evenodd;stroke:#00810b;stroke-width:0.4694398px;stroke-linecap:round;stroke-linejoin:round;stroke-opacity:1"
       d="m 274.11221,570.04797 -2.18152,1.64752 -2.26438,-1.73345 m 4.49124,-2.26083 -2.18151,1.64751 -2.26438,-1.73344 m 4.49124,-2.26083 -2.18151,1.64749 -2.26437,-1.73344 m 6.0332,-3.14997 -3.72346,2.53664 -3.8563,-2.861 m 6.08315,-1.13326 -2.1815,1.6475 -2.26437,-1.73343 m 4.49124,-2.26085 -2.18151,1.64753 -2.26437,-1.73345 m 4.49124,-2.26083 -2.18151,1.6475 -2.26439,-1.73344 m 4.49125,-2.26085 -2.18151,1.64752 -2.26439,-1.73345 m 6.03322,-3.14998 -3.72348,2.53665 -3.85629,-2.861 m 6.08316,-1.13327 -2.18152,1.6475 -2.26437,-1.73343 m 4.49124,-2.26085 -2.18151,1.64751 -2.26438,-1.73345 m 4.49124,-2.26083 -2.18152,1.64751 -2.26437,-1.73345 m 4.49126,-2.26083 -2.18152,1.64751 -2.26437,-1.73345"
       id="path4820-3-1-87-7"
       inkscape:connector-curvature="0"
       sodipodi:nodetypes="ccccccccccccccccccccccccccccccccccccccc" />
    <path
       style="fill:#00810b;fill-opacity:1;fill-rule:evenodd;stroke:none;stroke-width:1px;stroke-linecap:butt;stroke-linejoin:miter;stroke-opacity:1"
       d="m 272.49434,580.70756 0.0981,-20.25776 0.13996,-20.25696 a 0.21795419,0.21795419 90 0 0 -0.43582,-0.008 l -0.64284,20.24723 -0.68475,20.24643 a 0.76283969,0.76283969 90 0 0 1.5254,0.0295 z"
       id="path4851-1-5-3"
       inkscape:connector-curvature="0"
       inkscape:path-effect="#path-effect4853-5-9-6"
       inkscape:original-d="m 271.73164,580.69282 0.7828,-40.50419"
       sodipodi:nodetypes="cc" />
    <path
       style="fill:#2da537;fill-opacity:1;fill-rule:evenodd;stroke:none;stroke-width:1px;stroke-linecap:butt;stroke-linejoin:miter;stroke-opacity:1"
       d="m 200.35178,463.00517 c 0,0 -6.98706,3.10533 -14.51567,1.58418 -7.52861,-1.52115 -10.11199,-6.56016 -10.11199,-6.56016 0,0 4.33711,-3.64073 11.86573,-2.11959 7.52861,1.52115 12.76193,7.09557 12.76193,7.09557 z"
       id="path4811-5-8-3-0"
       inkscape:connector-curvature="0"
       sodipodi:nodetypes="cscsc" />
    <path
       style="fill:none;fill-rule:evenodd;stroke:#00810b;stroke-width:0.29944685px;stroke-linecap:round;stroke-linejoin:round;stroke-opacity:1"
       d="m 196.16694,460.76095 0.78474,1.55725 -1.3465,1.22305 m -0.90582,-3.07682 0.78474,1.55724 -1.34651,1.22306 m -0.90582,-3.07681 0.78474,1.55723 -1.3465,1.22305 m -1.28769,-4.14608 1.16661,2.62649 -2.23597,2.0933 m -0.0163,-3.94704 0.78474,1.55723 -1.3465,1.22306 m -0.90582,-3.07682 0.78475,1.55723 -1.3465,1.22305 m -0.90583,-3.07681 0.78474,1.55724 -1.3465,1.22305 m -0.90583,-3.07682 0.78475,1.55724 -1.34652,1.22306 m -1.28768,-4.14606 1.16661,2.62648 -2.23597,2.0933 m -0.0164,-3.94706 0.78474,1.55724 -1.3465,1.22305 m -0.90583,-3.07681 0.78475,1.55724 -1.34651,1.22306 m -0.90582,-3.07682 0.78474,1.55724 -1.3465,1.22305 m -0.90583,-3.07682 0.78476,1.55725 -1.34651,1.22304"
       id="path4820-3-1-87-6"
       inkscape:connector-curvature="0"
       sodipodi:nodetypes="ccccccccccccccccccccccccccccccccccccccc" />
    <path
       style="fill:#00810b;fill-opacity:1;fill-rule:evenodd;stroke:none;stroke-width:1px;stroke-linecap:butt;stroke-linejoin:miter;stroke-opacity:1"
       d="m 202.67178,462.99387 -12.70198,-2.37549 -12.69669,-2.4017 a 0.13902889,0.13902889 90 0 0 -0.0551,0.27256 l 12.63314,2.71617 12.62785,2.74238 a 0.48660112,0.48660112 90 0 0 0.19274,-0.95392 z"
       id="path4851-1-5-0"
       inkscape:connector-curvature="0"
       inkscape:path-effect="#path-effect4853-5-9-2"
       inkscape:original-d="m 202.57541,463.47083 -25.32983,-5.11787"
       sodipodi:nodetypes="cc" />
    <path
       style="fill:#2da537;fill-opacity:1;fill-rule:evenodd;stroke:none;stroke-width:1px;stroke-linecap:butt;stroke-linejoin:miter;stroke-opacity:1"
       d="m 193.52183,468.18983 c 0,0 0.74467,6.1058 -2.19719,11.53948 -2.94184,5.4337 -7.42622,6.23525 -7.42622,6.23525 0,0 -1.78014,-4.19322 1.16171,-9.62692 2.94184,-5.43369 8.4617,-8.14781 8.4617,-8.14781 z"
       id="path4811-5-8-3-0-3"
       inkscape:connector-curvature="0"
       sodipodi:nodetypes="cscsc" />
    <path
       style="fill:none;fill-rule:evenodd;stroke:#00810b;stroke-width:0.240897px;stroke-linecap:round;stroke-linejoin:round;stroke-opacity:1"
       d="m 190.81059,470.88105 1.38263,-0.23724 0.62402,1.32366 m -2.58011,-0.0272 1.38263,-0.23724 0.62402,1.32367 m -2.58012,-0.0272 1.38263,-0.23724 0.62401,1.32365 m -3.49254,0.015 2.29505,-0.27938 1.08417,2.2127 m -3.04024,-0.91629 1.38262,-0.23724 0.62403,1.32367 m -2.58012,-0.0272 1.38263,-0.23723 0.624,1.32365 m -2.5801,-0.0272 1.38263,-0.23723 0.62401,1.32366 m -2.58011,-0.0272 1.38263,-0.23724 0.62401,1.32367 m -3.49252,0.015 2.29504,-0.27938 1.08416,2.21269 m -3.04027,-0.91621 1.38263,-0.23724 0.62402,1.32366 m -2.58011,-0.0272 1.38263,-0.23723 0.62402,1.32366 m -2.58012,-0.0272 1.38263,-0.23723 0.62402,1.32365 m -2.58013,-0.0272 1.38264,-0.23723 0.62401,1.32365"
       id="path4820-3-1-87-6-4"
       inkscape:connector-curvature="0"
       sodipodi:nodetypes="ccccccccccccccccccccccccccccccccccccccc" />
    <path
       style="fill:#00810b;fill-opacity:1;fill-rule:evenodd;stroke:none;stroke-width:1px;stroke-linecap:butt;stroke-linejoin:miter;stroke-opacity:1"
       d="m 194.05908,466.40242 -4.8165,9.21245 -4.83542,9.2022 a 0.11184503,0.11184503 90 0 0 0.19672,0.1065 l 5.06238,-9.07932 5.0813,-9.06907 a 0.39145761,0.39145761 90 0 0 -0.68848,-0.37276 z"
       id="path4851-1-5-0-8"
       inkscape:connector-curvature="0"
       inkscape:path-effect="#path-effect4853-5-9-2-4"
       inkscape:original-d="m 194.40332,466.5888 -9.8978,18.28152"
       sodipodi:nodetypes="cc" />
    <path
       style="fill:#2da537;fill-opacity:1;fill-rule:evenodd;stroke:none;stroke-width:1px;stroke-linecap:butt;stroke-linejoin:miter;stroke-opacity:1"
       d="m 341.21647,631.22408 c 0,0 3.14869,6.96763 1.67435,14.50556 -1.47434,7.5379 -6.4972,10.15255 -6.4972,10.15255 0,0 -3.66761,-4.31441 -2.19329,-11.85233 1.47434,-7.53791 7.01614,-12.80578 7.01614,-12.80578 z"
       id="path4811-5-8-3-0-5"
       inkscape:connector-curvature="0"
       sodipodi:nodetypes="cscsc" />
    <path
       style="fill:none;fill-rule:evenodd;stroke:#00810b;stroke-width:0.29944685px;stroke-linecap:round;stroke-linejoin:round;stroke-opacity:1"
       d="m 338.99829,635.42279 1.55235,-0.7944 1.23141,1.33887 m -3.07114,0.92492 1.55233,-0.7944 1.23141,1.33888 m -3.07113,0.92493 1.55232,-0.7944 1.2314,1.33887 m -4.138,1.31343 2.61918,-1.18291 2.10717,2.22292 m -3.94688,0.0408 1.55233,-0.7944 1.23141,1.33886 m -3.07115,0.92494 1.55233,-0.79442 1.23141,1.33888 m -3.07114,0.92492 1.55234,-0.7944 1.2314,1.33888 m -3.07114,0.92492 1.55233,-0.7944 1.23142,1.33888 m -4.13799,1.31342 2.61918,-1.1829 2.10716,2.22293 m -3.94688,0.0409 1.55233,-0.7944 1.23139,1.33886 m -3.07112,0.92493 1.55234,-0.79441 1.2314,1.3389 m -3.07114,0.92491 1.55234,-0.7944 1.23139,1.33887 m -3.07113,0.92494 1.55235,-0.79443 1.23138,1.33889"
       id="path4820-3-1-87-6-3"
       inkscape:connector-curvature="0"
       sodipodi:nodetypes="ccccccccccccccccccccccccccccccccccccccc" />
    <path
       style="fill:#00810b;fill-opacity:1;fill-rule:evenodd;stroke:none;stroke-width:1px;stroke-linecap:butt;stroke-linejoin:miter;stroke-opacity:1"
       d="m 341.19075,628.9042 -2.29651,12.71649 -2.32275,12.71135 a 0.13902889,0.13902889 90 0 0 0.27288,0.0534 l 2.63762,-12.64978 2.66386,-12.64464 a 0.48660112,0.48660112 90 0 0 -0.9551,-0.1868 z"
       id="path4851-1-5-0-2"
       inkscape:connector-curvature="0"
       inkscape:path-effect="#path-effect4853-5-9-2-9"
       inkscape:original-d="m 341.6683,628.9976 -4.96037,25.36113"
       sodipodi:nodetypes="cc" />
    <path
       style="fill:#2da537;fill-opacity:1;fill-rule:evenodd;stroke:none;stroke-width:1px;stroke-linecap:butt;stroke-linejoin:miter;stroke-opacity:1"
       d="m 233.47625,627.83789 c 0,0 -14.98812,-12.65065 -19.90423,-31.72979 -4.9161,-19.07913 3.82258,-30.68204 3.82258,-30.68204 0,0 13.25766,5.93512 18.17381,25.01427 4.9161,19.07913 -2.09216,37.39756 -2.09216,37.39756 z"
       id="path4811-5-8-3-0-4"
       inkscape:connector-curvature="0"
       sodipodi:nodetypes="cscsc" />
    <path
       style="fill:none;fill-rule:evenodd;stroke:#00810b;stroke-width:0.76812828px;stroke-linecap:round;stroke-linejoin:round;stroke-opacity:1"
       d="m 233.97182,615.667 -2.71584,3.55432 -4.33005,-1.73882 m 6.08756,-5.53466 -2.71581,3.5543 -4.33008,-1.73881 m 6.08753,-5.53466 -2.71578,3.55428 -4.33006,-1.7388 m 8.12804,-7.6129 -4.75627,5.63251 -7.33424,-2.81766 m 9.09177,-4.45561 -2.7158,3.55428 -4.33007,-1.73879 m 6.08757,-5.53467 -2.71578,3.5543 -4.33005,-1.73879 m 6.08754,-5.53467 -2.71583,3.55428 -4.33004,-1.73879 m 6.08755,-5.5347 -2.7158,3.55432 -4.3301,-1.73883 m 8.128,-7.61286 -4.75624,5.63249 -7.33425,-2.81764 m 9.09167,-4.45596 -2.71582,3.55429 -4.33004,-1.7388 m 6.08752,-5.53468 -2.7158,3.55432 -4.33009,-1.73882 m 6.08757,-5.53466 -2.71581,3.55428 -4.33005,-1.73879 m 6.08754,-5.53469 -2.71581,3.55435 -4.33004,-1.73882"
       id="path4820-3-1-87-6-9"
       inkscape:connector-curvature="0"
       sodipodi:nodetypes="ccccccccccccccccccccccccccccccccccccccc" />
    <path
       style="fill:#00810b;fill-opacity:1;fill-rule:evenodd;stroke:none;stroke-width:1px;stroke-linecap:butt;stroke-linejoin:miter;stroke-opacity:1"
       d="m 236.09919,633.17994 -8.73496,-31.97587 -8.66854,-31.99298 a 0.35663099,0.35663099 90 0 0 -0.6907,0.17798 l 7.87158,32.19833 7.80516,32.21544 a 1.2482085,1.2482085 90 0 0 2.41746,-0.6229 z"
       id="path4851-1-5-0-4"
       inkscape:connector-curvature="0"
       inkscape:path-effect="#path-effect4853-5-9-2-5"
       inkscape:original-d="M 234.89046,633.49139 218.35034,569.30008"
       sodipodi:nodetypes="cc" />
    <path
       sodipodi:type="star"
       style="fill:#ffd870;fill-opacity:1;fill-rule:nonzero;stroke:#fff5a2;stroke-width:9.28499985;stroke-linecap:butt;stroke-linejoin:round;stroke-miterlimit:4;stroke-dasharray:none;stroke-dashoffset:90;stroke-opacity:1"
       id="path4734-0"
       sodipodi:sides="5"
       sodipodi:cx="250.89592"
       sodipodi:cy="376.72025"
       sodipodi:r1="22.132904"
       sodipodi:r2="31.173105"
       sodipodi:arg1="0.57762953"
       sodipodi:arg2="1.2059481"
       inkscape:flatsided="false"
       inkscape:rounded="0.4"
       inkscape:randomized="0.02"
       d="m 269.27319,388.49162 c -4.16256,6.22657 0.006,15.13857 -6.89807,17.95198 -6.90453,2.8134 -10.63845,-6.08423 -17.84107,-7.83708 -7.20262,-1.75286 -12.83054,3.49797 -17.62622,-2.26328 -4.79568,-5.76124 2.45307,-11.12317 2.22155,-18.52539 -0.23152,-7.40222 -8.58638,-11.75633 -4.57243,-17.97016 4.01395,-6.21383 11.7231,-1.38396 18.62125,-4.0216 6.89815,-2.63764 8.15926,-11.77026 15.35891,-9.80377 7.19965,1.96649 5.56118,11.47745 10.1034,17.40831 4.54223,5.93087 12.46744,4.50883 12.92317,11.85996 0.45573,7.35114 -8.12793,6.97445 -12.29049,13.20103 z"
       inkscape:transform-center-x="-0.5523603"
       inkscape:transform-center-y="2.8539885"
       transform="matrix(1.0841069,0.04152354,-0.04152354,1.0841069,13.000211,68.856901)" />
    <ellipse
       style="fill:#a16c3f;fill-opacity:1;fill-rule:nonzero;stroke:#bd901f;stroke-width:2.92923498;stroke-linecap:butt;stroke-linejoin:round;stroke-miterlimit:4;stroke-dasharray:none;stroke-dashoffset:90;stroke-opacity:1"
       id="path4738-3"
       transform="matrix(0.99926728,0.03827402,-0.03827402,0.99926728,0,0)"
       ry="10.539741"
       rx="12.492045"
       cy="476.25433"
       cx="287.82355" />
    <path
       sodipodi:type="star"
       style="fill:#ffd870;fill-opacity:1;fill-rule:nonzero;stroke:#fff5a2;stroke-width:9.28499985;stroke-linecap:butt;stroke-linejoin:round;stroke-miterlimit:4;stroke-dasharray:none;stroke-dashoffset:90;stroke-opacity:1"
       id="path4734-2"
       sodipodi:sides="5"
       sodipodi:cx="250.89592"
       sodipodi:cy="376.72025"
       sodipodi:r1="22.132904"
       sodipodi:r2="31.173105"
       sodipodi:arg1="0.57762953"
       sodipodi:arg2="1.2059481"
       inkscape:flatsided="false"
       inkscape:rounded="0.4"
       inkscape:randomized="0.02"
       d="m 269.27319,388.49162 c -4.16256,6.22657 0.006,15.13857 -6.89807,17.95198 -6.90453,2.8134 -10.63845,-6.08423 -17.84107,-7.83708 -7.20262,-1.75286 -12.83054,3.49797 -17.62622,-2.26328 -4.79568,-5.76124 2.45307,-11.12317 2.22155,-18.52539 -0.23152,-7.40222 -8.58638,-11.75633 -4.57243,-17.97016 4.01395,-6.21383 11.7231,-1.38396 18.62125,-4.0216 6.89815,-2.63764 8.15926,-11.77026 15.35891,-9.80377 7.19965,1.96649 5.56118,11.47745 10.1034,17.40831 4.54223,5.93087 12.46744,4.50883 12.92317,11.85996 0.45573,7.35114 -8.12793,6.97445 -12.29049,13.20103 z"
       inkscape:transform-center-x="-1.7967114"
       inkscape:transform-center-y="2.5425327"
       transform="matrix(0.32794471,-0.52781586,0.52781586,0.32794471,-77.587346,533.3814)" />
    <ellipse
       style="fill:#a16c3f;fill-opacity:1;fill-rule:nonzero;stroke:#bd901f;stroke-width:1.6777786;stroke-linecap:butt;stroke-linejoin:round;stroke-miterlimit:4;stroke-dasharray:none;stroke-dashoffset:90;stroke-opacity:1"
       id="path4738-0"
       transform="matrix(0.52775183,-0.84939861,0.84939861,0.52775183,0,0)"
       ry="6.0368495"
       rx="7.1550717"
       cy="449.24945"
       cx="-338.09369" />
  </g>
</svg>
